<svg width="182" height="14" viewBox="0 0 182 14" fill="none" xmlns="http://www.w3.org/2000/svg">
<path d="M9.71191 8.69336V10.0293H0.46582V9.07129L6.19629 0.203125H7.52344L6.09961 2.76953L2.31152 8.69336H9.71191ZM7.92773 0.203125V13H6.30176V0.203125H7.92773ZM13.4951 6.90918L12.1943 6.5752L12.8359 0.203125H19.4014V1.70605H14.2158L13.8291 5.18652C14.0635 5.05176 14.3594 4.92578 14.7168 4.80859C15.0801 4.69141 15.4961 4.63281 15.9648 4.63281C16.5566 4.63281 17.0869 4.73535 17.5557 4.94043C18.0244 5.13965 18.4229 5.42676 18.751 5.80176C19.085 6.17676 19.3398 6.62793 19.5156 7.15527C19.6914 7.68262 19.7793 8.27148 19.7793 8.92188C19.7793 9.53711 19.6943 10.1025 19.5244 10.6182C19.3604 11.1338 19.1113 11.585 18.7773 11.9717C18.4434 12.3525 18.0215 12.6484 17.5117 12.8594C17.0078 13.0703 16.4131 13.1758 15.7275 13.1758C15.2119 13.1758 14.7227 13.1055 14.2598 12.9648C13.8027 12.8184 13.3926 12.5986 13.0293 12.3057C12.6719 12.0068 12.3789 11.6377 12.1504 11.1982C11.9277 10.7529 11.7871 10.2314 11.7285 9.63379H13.2754C13.3457 10.1143 13.4863 10.5186 13.6973 10.8467C13.9082 11.1748 14.1836 11.4238 14.5234 11.5938C14.8691 11.7578 15.2705 11.8398 15.7275 11.8398C16.1143 11.8398 16.457 11.7725 16.7559 11.6377C17.0547 11.5029 17.3066 11.3096 17.5117 11.0576C17.7168 10.8057 17.8721 10.501 17.9775 10.1436C18.0889 9.78613 18.1445 9.38477 18.1445 8.93945C18.1445 8.53516 18.0889 8.16016 17.9775 7.81445C17.8662 7.46875 17.6992 7.16699 17.4766 6.90918C17.2598 6.65137 16.9932 6.45215 16.6768 6.31152C16.3604 6.16504 15.9971 6.0918 15.5869 6.0918C15.042 6.0918 14.6289 6.16504 14.3477 6.31152C14.0723 6.45801 13.7881 6.65723 13.4951 6.90918ZM22.7715 0.203125H24.415L28.6074 10.6357L32.791 0.203125H34.4434L29.2402 13H27.957L22.7715 0.203125ZM22.2354 0.203125H23.6855L23.9229 8.00781V13H22.2354V0.203125ZM33.5205 0.203125H34.9707V13H33.2832V8.00781L33.5205 0.203125ZM46.1719 6.13574V7.66504H37.4004V6.13574H46.1719ZM42.6035 2.40039V11.7168H40.9775V2.40039H42.6035ZM59.4688 3.49023V4.83496H54.6611V3.49023H59.4688ZM54.8984 3.49023V13H53.2725V3.49023H54.8984ZM60.9102 3.49023V13H59.2754V3.49023H60.9102ZM63.3398 8.35059V8.14844C63.3398 7.46289 63.4395 6.82715 63.6387 6.24121C63.8379 5.64941 64.125 5.13672 64.5 4.70312C64.875 4.26367 65.3291 3.92383 65.8623 3.68359C66.3955 3.4375 66.9932 3.31445 67.6553 3.31445C68.3232 3.31445 68.9238 3.4375 69.457 3.68359C69.9961 3.92383 70.4531 4.26367 70.8281 4.70312C71.209 5.13672 71.499 5.64941 71.6982 6.24121C71.8975 6.82715 71.9971 7.46289 71.9971 8.14844V8.35059C71.9971 9.03613 71.8975 9.67188 71.6982 10.2578C71.499 10.8438 71.209 11.3564 70.8281 11.7959C70.4531 12.2295 69.999 12.5693 69.4658 12.8154C68.9385 13.0557 68.3408 13.1758 67.6729 13.1758C67.0049 13.1758 66.4043 13.0557 65.8711 12.8154C65.3379 12.5693 64.8809 12.2295 64.5 11.7959C64.125 11.3564 63.8379 10.8438 63.6387 10.2578C63.4395 9.67188 63.3398 9.03613 63.3398 8.35059ZM64.9658 8.14844V8.35059C64.9658 8.8252 65.0215 9.27344 65.1328 9.69531C65.2441 10.1113 65.4111 10.4805 65.6338 10.8027C65.8623 11.125 66.1465 11.3799 66.4863 11.5674C66.8262 11.749 67.2217 11.8398 67.6729 11.8398C68.1182 11.8398 68.5078 11.749 68.8418 11.5674C69.1816 11.3799 69.4629 11.125 69.6855 10.8027C69.9082 10.4805 70.0752 10.1113 70.1865 9.69531C70.3037 9.27344 70.3623 8.8252 70.3623 8.35059V8.14844C70.3623 7.67969 70.3037 7.2373 70.1865 6.82129C70.0752 6.39941 69.9053 6.02734 69.6768 5.70508C69.4541 5.37695 69.1729 5.11914 68.833 4.93164C68.499 4.74414 68.1064 4.65039 67.6553 4.65039C67.21 4.65039 66.8174 4.74414 66.4775 4.93164C66.1436 5.11914 65.8623 5.37695 65.6338 5.70508C65.4111 6.02734 65.2441 6.39941 65.1328 6.82129C65.0215 7.2373 64.9658 7.67969 64.9658 8.14844ZM80.5 3.49023V4.83496H75.9033V3.49023H80.5ZM81.9326 3.49023V13H80.3066V3.49023H81.9326ZM75.5078 3.49023H77.1426L76.8965 8.07812C76.8555 8.78711 76.7881 9.41406 76.6943 9.95898C76.6064 10.498 76.4834 10.9609 76.3252 11.3477C76.1729 11.7344 75.9795 12.0508 75.7451 12.2969C75.5166 12.5371 75.2412 12.7158 74.9189 12.833C74.5967 12.9443 74.2246 13 73.8027 13H73.293V11.5674L73.6445 11.541C73.8965 11.5234 74.1104 11.4648 74.2861 11.3652C74.4678 11.2656 74.6201 11.1191 74.7432 10.9258C74.8662 10.7266 74.9658 10.4717 75.042 10.1611C75.124 9.85059 75.1855 9.48145 75.2266 9.05371C75.2734 8.62598 75.3086 8.12793 75.332 7.55957L75.5078 3.49023ZM86.1377 6.75977H88.9941C89.7617 6.75977 90.4092 6.89453 90.9365 7.16406C91.4639 7.42773 91.8623 7.79395 92.1318 8.2627C92.4072 8.72559 92.5449 9.25293 92.5449 9.84473C92.5449 10.2842 92.4688 10.6973 92.3164 11.084C92.1641 11.4648 91.9355 11.7988 91.6309 12.0859C91.332 12.373 90.96 12.5986 90.5146 12.7627C90.0752 12.9209 89.5684 13 88.9941 13H84.9512V3.49023H86.5771V11.6641H88.9941C89.4629 11.6641 89.8379 11.5791 90.1191 11.4092C90.4004 11.2393 90.6025 11.0195 90.7256 10.75C90.8486 10.4805 90.9102 10.1992 90.9102 9.90625C90.9102 9.61914 90.8486 9.33789 90.7256 9.0625C90.6025 8.78711 90.4004 8.55859 90.1191 8.37695C89.8379 8.18945 89.4629 8.0957 88.9941 8.0957H86.1377V6.75977ZM98.376 8.45605H96.627V7.4541H98.2441C98.6953 7.4541 99.0527 7.39844 99.3164 7.28711C99.5801 7.16992 99.7676 7.00879 99.8789 6.80371C99.9902 6.59863 100.046 6.3584 100.046 6.08301C100.046 5.83691 99.9814 5.60547 99.8525 5.38867C99.7295 5.16602 99.5303 4.9873 99.2549 4.85254C98.9795 4.71191 98.6104 4.6416 98.1475 4.6416C97.7725 4.6416 97.4326 4.70898 97.1279 4.84375C96.8232 4.97266 96.5801 5.15137 96.3984 5.37988C96.2227 5.60254 96.1348 5.85449 96.1348 6.13574H94.5088C94.5088 5.55566 94.6729 5.05762 95.001 4.6416C95.335 4.21973 95.7773 3.89453 96.3281 3.66602C96.8848 3.4375 97.4912 3.32324 98.1475 3.32324C98.6982 3.32324 99.1904 3.38477 99.624 3.50781C100.063 3.625 100.436 3.80078 100.74 4.03516C101.045 4.26367 101.276 4.55078 101.435 4.89648C101.599 5.23633 101.681 5.63184 101.681 6.08301C101.681 6.40527 101.604 6.70996 101.452 6.99707C101.3 7.28418 101.08 7.53906 100.793 7.76172C100.506 7.97852 100.157 8.14844 99.7471 8.27148C99.3428 8.39453 98.8857 8.45605 98.376 8.45605ZM96.627 7.84082H98.376C98.9443 7.84082 99.4453 7.89648 99.8789 8.00781C100.312 8.11328 100.676 8.27148 100.969 8.48242C101.262 8.69336 101.481 8.9541 101.628 9.26465C101.78 9.56934 101.856 9.9209 101.856 10.3193C101.856 10.7646 101.766 11.166 101.584 11.5234C101.408 11.875 101.156 12.1738 100.828 12.4199C100.5 12.666 100.107 12.8535 99.6504 12.9824C99.1992 13.1113 98.6982 13.1758 98.1475 13.1758C97.5322 13.1758 96.9346 13.0703 96.3545 12.8594C95.7744 12.6484 95.2969 12.3232 94.9219 11.8838C94.5469 11.4385 94.3594 10.873 94.3594 10.1875H95.9854C95.9854 10.4746 96.0762 10.7471 96.2578 11.0049C96.4395 11.2627 96.6914 11.4707 97.0137 11.6289C97.3418 11.7871 97.7197 11.8662 98.1475 11.8662C98.6045 11.8662 98.9854 11.7959 99.29 11.6553C99.5947 11.5146 99.8232 11.3271 99.9756 11.0928C100.134 10.8584 100.213 10.6035 100.213 10.3281C100.213 9.9707 100.143 9.68359 100.002 9.4668C99.8613 9.25 99.6445 9.0918 99.3516 8.99219C99.0645 8.88672 98.6953 8.83398 98.2441 8.83398H96.627V7.84082ZM103.785 8.35059V8.14844C103.785 7.46289 103.885 6.82715 104.084 6.24121C104.283 5.64941 104.57 5.13672 104.945 4.70312C105.32 4.26367 105.774 3.92383 106.308 3.68359C106.841 3.4375 107.438 3.31445 108.101 3.31445C108.769 3.31445 109.369 3.4375 109.902 3.68359C110.441 3.92383 110.898 4.26367 111.273 4.70312C111.654 5.13672 111.944 5.64941 112.144 6.24121C112.343 6.82715 112.442 7.46289 112.442 8.14844V8.35059C112.442 9.03613 112.343 9.67188 112.144 10.2578C111.944 10.8438 111.654 11.3564 111.273 11.7959C110.898 12.2295 110.444 12.5693 109.911 12.8154C109.384 13.0557 108.786 13.1758 108.118 13.1758C107.45 13.1758 106.85 13.0557 106.316 12.8154C105.783 12.5693 105.326 12.2295 104.945 11.7959C104.57 11.3564 104.283 10.8438 104.084 10.2578C103.885 9.67188 103.785 9.03613 103.785 8.35059ZM105.411 8.14844V8.35059C105.411 8.8252 105.467 9.27344 105.578 9.69531C105.689 10.1113 105.856 10.4805 106.079 10.8027C106.308 11.125 106.592 11.3799 106.932 11.5674C107.271 11.749 107.667 11.8398 108.118 11.8398C108.563 11.8398 108.953 11.749 109.287 11.5674C109.627 11.3799 109.908 11.125 110.131 10.8027C110.354 10.4805 110.521 10.1113 110.632 9.69531C110.749 9.27344 110.808 8.8252 110.808 8.35059V8.14844C110.808 7.67969 110.749 7.2373 110.632 6.82129C110.521 6.39941 110.351 6.02734 110.122 5.70508C109.899 5.37695 109.618 5.11914 109.278 4.93164C108.944 4.74414 108.552 4.65039 108.101 4.65039C107.655 4.65039 107.263 4.74414 106.923 4.93164C106.589 5.11914 106.308 5.37695 106.079 5.70508C105.856 6.02734 105.689 6.39941 105.578 6.82129C105.467 7.2373 105.411 7.67969 105.411 8.14844ZM119.196 8.81641H116.076L116.059 7.51562H118.607C119.111 7.51562 119.53 7.46582 119.864 7.36621C120.204 7.2666 120.459 7.11719 120.629 6.91797C120.799 6.71875 120.884 6.47266 120.884 6.17969C120.884 5.95117 120.834 5.75195 120.734 5.58203C120.641 5.40625 120.497 5.2627 120.304 5.15137C120.11 5.03418 119.87 4.94922 119.583 4.89648C119.302 4.83789 118.971 4.80859 118.59 4.80859H116.507V13H114.881V3.49023H118.59C119.193 3.49023 119.735 3.54297 120.216 3.64844C120.702 3.75391 121.115 3.91504 121.455 4.13184C121.801 4.34277 122.064 4.6123 122.246 4.94043C122.428 5.26855 122.519 5.65527 122.519 6.10059C122.519 6.3877 122.46 6.66016 122.343 6.91797C122.226 7.17578 122.053 7.4043 121.824 7.60352C121.596 7.80273 121.314 7.9668 120.98 8.0957C120.646 8.21875 120.263 8.29785 119.829 8.33301L119.196 8.81641ZM119.196 13H115.487L116.296 11.6816H119.196C119.647 11.6816 120.022 11.626 120.321 11.5146C120.62 11.3975 120.843 11.2334 120.989 11.0225C121.142 10.8057 121.218 10.5479 121.218 10.249C121.218 9.9502 121.142 9.69531 120.989 9.48438C120.843 9.26758 120.62 9.10352 120.321 8.99219C120.022 8.875 119.647 8.81641 119.196 8.81641H116.727L116.744 7.51562H119.829L120.418 8.00781C120.939 8.04883 121.382 8.17773 121.745 8.39453C122.108 8.61133 122.384 8.88672 122.571 9.2207C122.759 9.54883 122.853 9.90625 122.853 10.293C122.853 10.7383 122.768 11.1309 122.598 11.4707C122.434 11.8105 122.193 12.0947 121.877 12.3232C121.561 12.5459 121.177 12.7158 120.726 12.833C120.274 12.9443 119.765 13 119.196 13ZM130.89 11.374V6.47852C130.89 6.10352 130.813 5.77832 130.661 5.50293C130.515 5.22168 130.292 5.00488 129.993 4.85254C129.694 4.7002 129.325 4.62402 128.886 4.62402C128.476 4.62402 128.115 4.69434 127.805 4.83496C127.5 4.97559 127.26 5.16016 127.084 5.38867C126.914 5.61719 126.829 5.86328 126.829 6.12695H125.203C125.203 5.78711 125.291 5.4502 125.467 5.11621C125.643 4.78223 125.895 4.48047 126.223 4.21094C126.557 3.93555 126.955 3.71875 127.418 3.56055C127.887 3.39648 128.408 3.31445 128.982 3.31445C129.674 3.31445 130.283 3.43164 130.811 3.66602C131.344 3.90039 131.76 4.25488 132.059 4.72949C132.363 5.19824 132.516 5.78711 132.516 6.49609V10.9258C132.516 11.2422 132.542 11.5791 132.595 11.9365C132.653 12.2939 132.738 12.6016 132.85 12.8594V13H131.153C131.071 12.8125 131.007 12.5635 130.96 12.2529C130.913 11.9365 130.89 11.6436 130.89 11.374ZM131.171 7.23438L131.188 8.37695H129.545C129.082 8.37695 128.669 8.41504 128.306 8.49121C127.942 8.56152 127.638 8.66992 127.392 8.81641C127.146 8.96289 126.958 9.14746 126.829 9.37012C126.7 9.58691 126.636 9.8418 126.636 10.1348C126.636 10.4336 126.703 10.7061 126.838 10.9521C126.973 11.1982 127.175 11.3945 127.444 11.541C127.72 11.6816 128.057 11.752 128.455 11.752C128.953 11.752 129.393 11.6465 129.773 11.4355C130.154 11.2246 130.456 10.9668 130.679 10.6621C130.907 10.3574 131.03 10.0615 131.048 9.77441L131.742 10.5566C131.701 10.8027 131.59 11.0752 131.408 11.374C131.227 11.6729 130.983 11.96 130.679 12.2354C130.38 12.5049 130.022 12.7305 129.606 12.9121C129.196 13.0879 128.733 13.1758 128.218 13.1758C127.573 13.1758 127.008 13.0498 126.521 12.7979C126.041 12.5459 125.666 12.209 125.396 11.7871C125.133 11.3594 125.001 10.8818 125.001 10.3545C125.001 9.84473 125.101 9.39648 125.3 9.00977C125.499 8.61719 125.786 8.29199 126.161 8.03418C126.536 7.77051 126.987 7.57129 127.515 7.43652C128.042 7.30176 128.631 7.23438 129.281 7.23438H131.171ZM139.059 3.49023V13H137.424V3.49023H139.059ZM142.249 3.49023V4.80859H134.295V3.49023H142.249ZM147.342 13.1758C146.68 13.1758 146.079 13.0645 145.54 12.8418C145.007 12.6133 144.547 12.2939 144.16 11.8838C143.779 11.4736 143.486 10.9873 143.281 10.4248C143.076 9.8623 142.974 9.24707 142.974 8.5791V8.20996C142.974 7.43652 143.088 6.74805 143.316 6.14453C143.545 5.53516 143.855 5.01953 144.248 4.59766C144.641 4.17578 145.086 3.85645 145.584 3.63965C146.082 3.42285 146.598 3.31445 147.131 3.31445C147.811 3.31445 148.396 3.43164 148.889 3.66602C149.387 3.90039 149.794 4.22852 150.11 4.65039C150.427 5.06641 150.661 5.55859 150.813 6.12695C150.966 6.68945 151.042 7.30469 151.042 7.97266V8.70215H143.94V7.375H149.416V7.25195C149.393 6.83008 149.305 6.41992 149.152 6.02148C149.006 5.62305 148.771 5.29492 148.449 5.03711C148.127 4.7793 147.688 4.65039 147.131 4.65039C146.762 4.65039 146.422 4.72949 146.111 4.8877C145.801 5.04004 145.534 5.26855 145.312 5.57324C145.089 5.87793 144.916 6.25 144.793 6.68945C144.67 7.12891 144.608 7.63574 144.608 8.20996V8.5791C144.608 9.03027 144.67 9.45508 144.793 9.85352C144.922 10.2461 145.106 10.5918 145.347 10.8906C145.593 11.1895 145.889 11.4238 146.234 11.5938C146.586 11.7637 146.984 11.8486 147.43 11.8486C148.004 11.8486 148.49 11.7314 148.889 11.4971C149.287 11.2627 149.636 10.9492 149.935 10.5566L150.919 11.3389C150.714 11.6494 150.453 11.9453 150.137 12.2266C149.82 12.5078 149.431 12.7363 148.968 12.9121C148.511 13.0879 147.969 13.1758 147.342 13.1758ZM159.545 3.49023V4.83496H154.948V3.49023H159.545ZM160.978 3.49023V13H159.352V3.49023H160.978ZM154.553 3.49023H156.188L155.941 8.07812C155.9 8.78711 155.833 9.41406 155.739 9.95898C155.651 10.498 155.528 10.9609 155.37 11.3477C155.218 11.7344 155.024 12.0508 154.79 12.2969C154.562 12.5371 154.286 12.7158 153.964 12.833C153.642 12.9443 153.27 13 152.848 13H152.338V11.5674L152.689 11.541C152.941 11.5234 153.155 11.4648 153.331 11.3652C153.513 11.2656 153.665 11.1191 153.788 10.9258C153.911 10.7266 154.011 10.4717 154.087 10.1611C154.169 9.85059 154.23 9.48145 154.271 9.05371C154.318 8.62598 154.354 8.12793 154.377 7.55957L154.553 3.49023ZM167.793 13.1758C167.131 13.1758 166.53 13.0645 165.991 12.8418C165.458 12.6133 164.998 12.2939 164.611 11.8838C164.23 11.4736 163.938 10.9873 163.732 10.4248C163.527 9.8623 163.425 9.24707 163.425 8.5791V8.20996C163.425 7.43652 163.539 6.74805 163.768 6.14453C163.996 5.53516 164.307 5.01953 164.699 4.59766C165.092 4.17578 165.537 3.85645 166.035 3.63965C166.533 3.42285 167.049 3.31445 167.582 3.31445C168.262 3.31445 168.848 3.43164 169.34 3.66602C169.838 3.90039 170.245 4.22852 170.562 4.65039C170.878 5.06641 171.112 5.55859 171.265 6.12695C171.417 6.68945 171.493 7.30469 171.493 7.97266V8.70215H164.392V7.375H169.867V7.25195C169.844 6.83008 169.756 6.41992 169.604 6.02148C169.457 5.62305 169.223 5.29492 168.9 5.03711C168.578 4.7793 168.139 4.65039 167.582 4.65039C167.213 4.65039 166.873 4.72949 166.562 4.8877C166.252 5.04004 165.985 5.26855 165.763 5.57324C165.54 5.87793 165.367 6.25 165.244 6.68945C165.121 7.12891 165.06 7.63574 165.06 8.20996V8.5791C165.06 9.03027 165.121 9.45508 165.244 9.85352C165.373 10.2461 165.558 10.5918 165.798 10.8906C166.044 11.1895 166.34 11.4238 166.686 11.5938C167.037 11.7637 167.436 11.8486 167.881 11.8486C168.455 11.8486 168.941 11.7314 169.34 11.4971C169.738 11.2627 170.087 10.9492 170.386 10.5566L171.37 11.3389C171.165 11.6494 170.904 11.9453 170.588 12.2266C170.271 12.5078 169.882 12.7363 169.419 12.9121C168.962 13.0879 168.42 13.1758 167.793 13.1758ZM175.399 10.4248L179.785 3.49023H181.42V13H179.785V6.06543L175.399 13H173.782V3.49023H175.399V10.4248ZM178.897 0.0449219H180.216C180.216 0.501953 180.11 0.90918 179.899 1.2666C179.688 1.61816 179.387 1.89355 178.994 2.09277C178.602 2.29199 178.136 2.3916 177.597 2.3916C176.782 2.3916 176.138 2.1748 175.663 1.74121C175.194 1.30176 174.96 0.736328 174.96 0.0449219H176.278C176.278 0.390625 176.378 0.695312 176.577 0.958984C176.776 1.22266 177.116 1.35449 177.597 1.35449C178.065 1.35449 178.399 1.22266 178.599 0.958984C178.798 0.695312 178.897 0.390625 178.897 0.0449219Z" fill="#050038"/>
</svg>
